<svg width="26" height="35" viewBox="0 0 26 35" fill="none" xmlns="http://www.w3.org/2000/svg">
<path d="M13.8231 6.84045C14.0992 6.36216 14.7108 6.19828 15.1891 6.47442L21.1057 9.8904C21.584 10.1665 21.7479 10.7781 21.4717 11.2564L12.2417 27.2433C12.0765 27.5295 11.7806 27.7156 11.4511 27.7405L7.63426 28.0292C7.24307 28.0588 6.87072 27.8569 6.68206 27.513L4.61703 23.7481C4.44898 23.4417 4.45305 23.0698 4.62777 22.7671L13.8231 6.84045Z" fill="#FF008A" stroke="black" stroke-width="2"/>
<path d="M15.2588 14.0186L18.506 15.8933" stroke="black" stroke-width="2" stroke-linecap="round"/>
<path d="M20.2383 4.14551L18.3635 7.39269" stroke="black" stroke-width="2" stroke-linecap="round"/>
<path d="M23.9775 5.58301L16.7616 1.41687" stroke="black" stroke-width="2" stroke-linecap="round"/>
<path d="M12.7588 18.3486L16.006 20.2234" stroke="black" stroke-width="2" stroke-linecap="round"/>
<path d="M5.05176 31.6982L6.92652 28.4511" stroke="black" stroke-width="2" stroke-linecap="round"/>
</svg>
