<svg width="32" height="33" viewBox="0 0 32 33" fill="none" xmlns="http://www.w3.org/2000/svg">
<path d="M1.11072 27.3538L1.16803 27.2494L1.1992 27.1344L3.63971 18.1309H26.5445L28.985 27.1344L29.0162 27.2494L29.0735 27.3538C29.1569 27.5058 29.1842 27.6303 29.1842 27.7361C29.1842 27.9622 29.0428 28.347 28.3897 28.8478C27.7512 29.3374 26.7643 29.8215 25.4553 30.246C22.8484 31.0915 19.1844 31.6309 15.0921 31.6309C10.9998 31.6309 7.33577 31.0915 4.72888 30.246C3.41989 29.8215 2.43304 29.3374 1.79451 28.8478C1.14143 28.347 1 27.9622 1 27.7361C1 27.6303 1.02731 27.5058 1.11072 27.3538Z" fill="#B46AFE" stroke="black" stroke-width="2"/>
<path d="M26.7367 17.539C26.7367 17.9251 26.5544 18.3819 26.039 18.8929C25.5199 19.4075 24.7178 19.917 23.6465 20.3663C21.5079 21.2631 18.484 21.8416 15.092 21.8416C11.7 21.8416 8.67614 21.2631 6.53755 20.3663C5.46616 19.917 4.66411 19.4075 4.14502 18.8929C3.62964 18.3819 3.44727 17.9251 3.44727 17.539C3.44727 17.1528 3.62964 16.6961 4.14502 16.1851C4.66411 15.6704 5.46616 15.1609 6.53755 14.7116C8.67614 13.8148 11.7 13.2363 15.092 13.2363C18.484 13.2363 21.5079 13.8148 23.6465 14.7116C24.7178 15.1609 25.5199 15.6704 26.039 16.1851C26.5544 16.6961 26.7367 17.1528 26.7367 17.539Z" fill="#5F2796" stroke="black" stroke-width="2"/>
<circle cx="24.066" cy="8.56507" r="6.93421" fill="#97F46B" stroke="black" stroke-width="2"/>
<path d="M21.2109 7.74907L22.7904 9.66699C23.1904 10.1527 23.9343 10.1527 24.3343 9.66699L26.9215 6.52539" stroke="black" stroke-width="2" stroke-linecap="round"/>
</svg>
