<svg width="28" height="28" viewBox="0 0 28 28" fill="none" xmlns="http://www.w3.org/2000/svg">
<rect x="0.5" y="0.5" width="27" height="27" rx="13.5" fill="white"/>
<rect x="0.5" y="0.5" width="27" height="27" rx="13.5" stroke="#C4C4C4"/>
<rect width="20" height="20" transform="translate(4 4)" fill="white"/>
<path d="M10 9.1002V10.1002C10.3557 10.1002 10.6846 9.91128 10.8638 9.60407L10 9.1002ZM11.4 6.7002V5.7002C11.0443 5.7002 10.7154 5.88911 10.5362 6.19632L11.4 6.7002ZM16.6 6.7002L17.4638 6.19632C17.2846 5.88911 16.9557 5.7002 16.6 5.7002V6.7002ZM18 9.1002L17.1362 9.60407C17.3154 9.91128 17.6443 10.1002 18 10.1002V9.1002ZM7 19.3002V11.1002H5V19.3002H7ZM8 10.1002H10V8.1002H8V10.1002ZM10.8638 9.60407L12.2638 7.20407L10.5362 6.19632L9.13622 8.59632L10.8638 9.60407ZM11.4 7.7002H16.6V5.7002H11.4V7.7002ZM15.7362 7.20407L17.1362 9.60407L18.8638 8.59632L17.4638 6.19632L15.7362 7.20407ZM18 10.1002H20V8.1002H18V10.1002ZM21 11.1002V19.3002H23V11.1002H21ZM21 19.3002C21 19.8525 20.5523 20.3002 20 20.3002V22.3002C21.6569 22.3002 23 20.9571 23 19.3002H21ZM20 10.1002C20.5523 10.1002 21 10.5479 21 11.1002H23C23 9.44334 21.6569 8.1002 20 8.1002V10.1002ZM7 11.1002C7 10.5479 7.44771 10.1002 8 10.1002V8.1002C6.34315 8.1002 5 9.44334 5 11.1002H7ZM8 20.3002C7.44772 20.3002 7 19.8525 7 19.3002H5C5 20.957 6.34315 22.3002 8 22.3002V20.3002ZM16 14.7002C16 15.8048 15.1046 16.7002 14 16.7002V18.7002C16.2091 18.7002 18 16.9093 18 14.7002H16ZM14 16.7002C12.8954 16.7002 12 15.8048 12 14.7002H10C10 16.9093 11.7909 18.7002 14 18.7002V16.7002ZM12 14.7002C12 13.5956 12.8954 12.7002 14 12.7002V10.7002C11.7909 10.7002 10 12.4911 10 14.7002H12ZM14 12.7002C15.1046 12.7002 16 13.5956 16 14.7002H18C18 12.4911 16.2091 10.7002 14 10.7002V12.7002ZM20 20.3002H8V22.3002H20V20.3002Z" fill="#454545"/>
</svg>
