<svg width="81" height="80" viewBox="0 0 81 80" fill="none" xmlns="http://www.w3.org/2000/svg">
<path d="M15.8751 25.9642C22.5449 18.9675 28.0859 19.2719 30.0227 20.2988C28.6802 30.2431 23.5725 49.1829 13.8815 45.3874C1.76782 40.6431 7.53797 34.7102 15.8751 25.9642Z" fill="black" stroke="black" stroke-width="2"/>
<path d="M63.9891 25.9642C57.3194 18.9675 51.7784 19.2719 49.8416 20.2988C51.1841 30.2431 56.2918 49.1829 65.9828 45.3874C78.0964 40.6431 72.3263 34.7102 63.9891 25.9642Z" fill="black" stroke="black" stroke-width="2"/>
<path d="M21.7173 26.4252C22.6862 21.9036 26.3796 18.4708 30.9599 17.8346L37.8862 16.8726C39.6204 16.6318 41.3796 16.6318 43.1138 16.8726L50.0401 17.8346C54.6204 18.4708 58.3138 21.9036 59.2827 26.4252L62.7857 42.7727C63.2265 44.8298 63.0682 46.9701 62.3295 48.9399L60.4836 53.8624C58.8736 58.1557 54.7693 61 50.184 61H30.816C26.2307 61 22.1264 58.1557 20.5164 53.8624L18.6705 48.9399C17.9318 46.9701 17.7735 44.8298 18.2143 42.7727L21.7173 26.4252Z" fill="white" stroke="black" stroke-width="2"/>
<rect x="31" y="30.5" width="3" height="5" rx="1.5" fill="black" stroke="black"/>
<rect x="47" y="30.5" width="3" height="5" rx="1.5" fill="black" stroke="black"/>
<path d="M34.5 47.967C36.3333 49.2033 40.1 50.3407 40.5 45" stroke="black" stroke-width="2" stroke-linecap="round"/>
<path d="M30 27.5C31 27.5 32.5 27 33 26.5" stroke="black" stroke-width="2" stroke-linecap="round"/>
<path d="M51 27.5C50 27.5 48.5 27 48 26.5" stroke="black" stroke-width="2" stroke-linecap="round"/>
<path d="M47.5 47.967C45.6667 49.2033 41.9 50.3407 41.5 45" stroke="black" stroke-width="2" stroke-linecap="round"/>
<path d="M45 42C45 43.4602 43.4289 45 41 45C38.5711 45 37 43.4602 37 42C37 40.5398 38.5711 39 41 39C43.4289 39 45 40.5398 45 42Z" fill="#A93AEE" stroke="black" stroke-width="2"/>
</svg>
