<svg width="16" height="16" viewBox="0 0 16 16" fill="none" xmlns="http://www.w3.org/2000/svg">
<g clip-path="url(#clip0_1523_2170)">
<path fill-rule="evenodd" clip-rule="evenodd" d="M11.1625 2.70494L10.838 3.0407L13.1255 5.00143L13.2951 4.8376C13.8803 4.24839 13.8791 3.29631 13.2914 2.70861C12.7037 2.12092 11.7517 2.1197 11.1625 2.70494ZM12.1624 5.93202L9.90989 4.00126L3.39179 10.747L2.5941 13.4059L5.25305 12.6083L12.1624 5.93202ZM10.216 1.76581C11.3256 0.656191 13.1246 0.656188 14.2342 1.7658C15.3439 2.87542 15.3439 4.67447 14.2342 5.78408L14.2261 5.7921L6.06303 13.6797C5.98648 13.7537 5.89332 13.8082 5.79135 13.8388L1.79135 15.0388C1.55644 15.1093 1.30181 15.0451 1.12838 14.8717C0.954963 14.6982 0.890765 14.4436 0.961238 14.2087L2.16124 10.2087C2.19183 10.1067 2.24639 10.0136 2.32036 9.93702L10.2079 1.77397L10.216 1.76581ZM7.33312 14.8003C7.33312 14.4321 7.6316 14.1336 7.99979 14.1336H14.3998C14.768 14.1336 15.0665 14.4321 15.0665 14.8003C15.0665 15.1685 14.768 15.4669 14.3998 15.4669H7.99979C7.6316 15.4669 7.33312 15.1685 7.33312 14.8003Z" fill="#1362E0"/>
</g>
<defs>
<clipPath id="clip0_1523_2170">
<rect width="16" height="16" fill="white"/>
</clipPath>
</defs>
</svg>
