<svg width="19" height="19" viewBox="0 0 19 19" fill="none" xmlns="http://www.w3.org/2000/svg">
<g id="Google">
<g id="Group 5">
<g id="Group">
<path id="Combined Shape" fill-rule="evenodd" clip-rule="evenodd" d="M15.8697 16.5487L12.7578 14.0371C13.651 13.3946 14.3467 12.4949 14.7365 11.4464H9.55762V7.53125H18.7957C18.9296 8.16653 19.0001 8.82521 19.0001 9.50034C19.0001 9.83383 18.9829 10.1633 18.9494 10.4879C18.7018 12.885 17.5628 15.0176 15.8697 16.5487Z" fill="#4285F4"/>
</g>
<g id="Group_2">
<mask id="mask0_1440_1776" style="mask-type:alpha" maskUnits="userSpaceOnUse" x="1" y="11" width="15" height="9">
<g id="mask 2">
<path id="Vector" d="M1.03662 13.8205L4.22644 11.3438C4.98769 13.5229 7.0614 15.0861 9.50022 15.0861C10.7145 15.0861 11.8383 14.6985 12.7547 14.0404L15.8691 16.5503C14.1842 18.0736 11.9505 19.0013 9.50022 19.0013C5.80887 19.0013 2.60925 16.8959 1.03662 13.8205Z" fill="white"/>
</g>
</mask>
<g mask="url(#mask0_1440_1776)">
<path id="Combined Shape_2" d="M1.03662 13.8205L4.22644 11.3438C4.98769 13.5229 7.0614 15.0861 9.50022 15.0861C10.7145 15.0861 11.8383 14.6985 12.7547 14.0404L15.8691 16.5503C14.1842 18.0736 11.9505 19.0013 9.50022 19.0013C5.80887 19.0013 2.60925 16.8959 1.03662 13.8205Z" fill="#34A853"/>
</g>
</g>
<g id="Group_3">
<mask id="mask1_1440_1776" style="mask-type:alpha" maskUnits="userSpaceOnUse" x="0" y="5" width="5" height="9">
<g id="mask 4">
<path id="Vector_2" d="M1.07719 5.10156L4.26446 7.55118C4.0386 8.15782 3.91515 8.81433 3.91515 9.49966C3.91515 10.1706 4.03345 10.8138 4.25033 11.4098L1.04295 13.8317C0.376237 12.5327 0 11.0601 0 9.49966C0 7.91267 0.389133 6.41657 1.07719 5.10156Z" fill="white"/>
</g>
</mask>
<g mask="url(#mask1_1440_1776)">
<path id="Combined Shape_3" d="M1.07719 5.10156L4.26446 7.55118C4.0386 8.15782 3.91515 8.81433 3.91515 9.49966C3.91515 10.1706 4.03345 10.8138 4.25033 11.4098L1.04295 13.8317C0.376237 12.5327 0 11.0601 0 9.49966C0 7.91267 0.389133 6.41657 1.07719 5.10156Z" fill="#E8C33D"/>
</g>
</g>
<g id="Group_4">
<mask id="mask2_1440_1776" style="mask-type:alpha" maskUnits="userSpaceOnUse" x="1" y="0" width="16" height="8">
<g id="mask 6">
<path id="Vector_3" d="M4.26436 7.55152L1.07709 5.10191C2.6638 2.06942 5.84018 0 9.4999 0C12.1313 0 14.5128 1.06984 16.2332 2.79829L13.4748 5.57692C12.4622 4.55099 11.0553 3.91515 9.4999 3.91515C7.1008 3.91515 5.05503 5.42787 4.26436 7.55152Z" fill="white"/>
</g>
</mask>
<g mask="url(#mask2_1440_1776)">
<path id="Combined Shape_4" d="M4.26436 7.55152L1.07709 5.10191C2.6638 2.06942 5.84018 0 9.4999 0C12.1313 0 14.5128 1.06984 16.2332 2.79829L13.4748 5.57692C12.4622 4.55099 11.0553 3.91515 9.4999 3.91515C7.1008 3.91515 5.05503 5.42787 4.26436 7.55152Z" fill="#EA4335"/>
</g>
</g>
</g>
</g>
</svg>
