<svg width="24" height="24" viewBox="0 0 24 24" fill="none" xmlns="http://www.w3.org/2000/svg">
<g id="Frame" clip-path="url(#clip0_1352_1839)">
<path id="Vector" d="M11.9283 3.72461C6.81103 3.72461 2.66287 7.00397 2.66287 11.0494C2.66287 13.6827 4.42063 15.99 7.05823 17.2812C6.86431 18.0051 6.35647 19.9025 6.25471 20.3086C6.12943 20.8126 6.43951 20.8059 6.64255 20.67C6.80191 20.564 9.18175 18.9464 10.2085 18.248C10.7658 18.3305 11.3403 18.3742 11.9283 18.3742C17.0456 18.3742 21.1938 15.0944 21.1938 11.0494C21.1938 7.00445 17.0451 3.72461 11.9283 3.72461Z" fill="#391B1B"/>
<g id="Group">
<path id="Vector_2" d="M8.20046 8.8916H5.49086C5.23598 8.8916 5.03006 9.098 5.03006 9.3524C5.03006 9.6068 5.23646 9.8132 5.49086 9.8132H6.37166V13.059C6.37166 13.177 6.41966 13.2932 6.50414 13.3772C6.5867 13.4607 6.70238 13.5087 6.82094 13.5087H6.91934C7.03742 13.5087 7.15262 13.4607 7.23566 13.3772C7.32014 13.2932 7.36814 13.1775 7.36814 13.059V9.8132H8.19998C8.45486 9.8132 8.66126 9.6068 8.66126 9.3524C8.66126 9.098 8.45486 8.8916 8.19998 8.8916H8.20046Z" fill="#FAE300"/>
<path id="Vector_3" d="M14.7119 12.6422H13.4519V9.32731C13.4519 9.05083 13.2282 8.82715 12.9522 8.82715C12.6762 8.82715 12.4525 9.05083 12.4525 9.32731V12.9004C12.4525 12.9283 12.4559 12.9542 12.4602 12.9806C12.4554 13.0065 12.4525 13.0334 12.4525 13.0603C12.4525 13.2916 12.6393 13.4788 12.8706 13.4788H14.7119C14.9437 13.4788 15.13 13.2916 15.13 13.0603C15.13 12.8289 14.9433 12.6422 14.7119 12.6422Z" fill="#FAE300"/>
<path id="Vector_4" d="M18.7376 12.7943L17.3336 10.9502L18.6022 9.68107C18.7741 9.50971 18.7741 9.23083 18.6022 9.05899C18.4304 8.88715 18.152 8.88715 17.9797 9.05899L16.4091 10.6295V9.32731C16.4091 9.05083 16.1854 8.82715 15.9094 8.82715C15.6334 8.82715 15.4093 9.05083 15.4093 9.32731V13.0103C15.4093 13.2868 15.633 13.5105 15.9094 13.5105C16.1859 13.5105 16.4091 13.2873 16.4091 13.0103V11.8742L16.6947 11.5891L18.0229 13.3319C18.1707 13.5292 18.4515 13.57 18.6488 13.4207C18.8461 13.2724 18.8859 12.9921 18.7376 12.7943Z" fill="#FAE300"/>
<path id="Vector_5" d="M12.0782 12.9143L10.728 9.22027C10.728 9.22027 10.7246 9.21739 10.7237 9.21595C10.6373 8.99083 10.3881 8.82715 10.091 8.82715C9.76125 8.82715 9.48861 9.02875 9.43437 9.29227C9.42525 9.31195 9.41613 9.33163 9.40845 9.35275L8.08077 12.9143C7.99869 13.1481 8.12157 13.4035 8.35437 13.4855C8.58765 13.5676 8.84349 13.4447 8.92557 13.2115L9.15549 12.5558H11.0035L11.2329 13.2115C11.315 13.4447 11.5709 13.5676 11.8041 13.4855C12.0374 13.4035 12.1603 13.1481 12.0782 12.9143ZM9.44877 11.7182L10.0699 9.94603C10.0771 9.94603 10.0829 9.94795 10.0901 9.94795L10.7107 11.7182H9.44925H9.44877Z" fill="#FAE300"/>
</g>
</g>
<defs>
<clipPath id="clip0_1352_1839">
<rect width="24" height="24" fill="white"/>
</clipPath>
</defs>
</svg>
