<svg width="202" height="187" viewBox="0 0 202 187" fill="none" xmlns="http://www.w3.org/2000/svg">
<g id="Group 12744">
<g id="Group 12743">
<path id="Union" d="M35 6C20.0883 6 8 18.0883 8 33C8 47.9117 20.0883 60 35 60C40.278 60 45.2023 58.4856 49.362 55.8675C52.3156 56.945 55.6624 58.1862 58.7275 59.3316C60.5434 60.0102 62.1746 57.9688 61.1084 56.3498L56.494 49.3428C59.9488 44.806 62 39.1425 62 33C62 18.0883 49.9117 6 35 6Z" fill="white" stroke="black" stroke-width="2" stroke-linecap="round"/>
<path id="Vector 667" d="M21.5 30.4996C21.9 36.4996 29.3333 42.9996 33 45.4996L35 47.5C48.5 41.5 47.5 29 47 26C46.5 23 44.5 22 40 20.5C36.4 19.3 34.5 21 34 22L29 18.9996C24 17.4996 21 22.9996 21.5 30.4996Z" fill="#E562DF"/>
<path id="Vector 668" d="M33.5 23.5C32.3333 24.6667 30.5 27.4 32.5 29C35 31 37 28.5 33.5 23.5Z" fill="white"/>
<path id="Vector 666" d="M31.5 44C28 41 22.4741 37.911 21.1801 30.1001C19.5625 20.3365 29.2681 15.4547 33.3121 21.9638C36.7517 27.5 36 30.5 33.3121 30.1001C30.1121 29.624 31.6945 20.3365 38.165 20.3365C44.6354 20.3365 48.5 24.5 47.0618 33.3546C45.9673 40.0928 37.3561 46.6439 34.1209 48" stroke="black" stroke-width="2" stroke-linecap="round" stroke-linejoin="round"/>
</g>
<g id="Group 12742">
<g id="Group 12739">
<path id="Vector 643" d="M158.409 27.5044C149.129 -3.42917 122.043 -1.08776 112.376 2.77894C103.999 2.77884 83.2045 12.3272 87.0712 39.3941C78.8234 61.6319 77.6418 78.1387 83.8285 85.8721C91.5619 95.5388 85.3096 91.7127 75.6428 102.346C65.9761 112.98 56.3094 140.046 84.3429 145.846C106.77 150.486 156.703 161.731 177.325 158.831C217.858 148.563 198.943 106.949 179.077 98.4794C162.733 91.5114 154.673 79.843 160.031 70.1993C165.435 60.4709 169.247 40.2954 158.409 27.5044Z" fill="#9747FF"/>
<path id="Vector 655" d="M115.574 118.924C115.754 115.141 98.2795 108.656 101.522 92.983C102.733 87.1285 102.487 80.4947 101.74 74.0676C90.7133 65.4205 95.6663 43.364 96.1177 38.3984L111.25 55.6928C125.121 49.5678 152.215 40.4523 149.621 52.9906C148.261 59.5651 149.813 70.1915 152.221 80.5529C159.676 96.0928 175.736 99.3447 187.991 114.199C198.755 127.244 192.951 145.923 181.507 158.376L115.574 118.924Z" fill="#7E2BE9"/>
<path id="Union_2" d="M151.017 38.9427C151.017 39.2529 151.014 39.5624 151.009 39.8712C153.668 40.2297 156.03 42.5412 155.655 45.7895L155.345 48.4763C155.065 50.9035 153.367 52.9311 151.027 53.6332L148.873 54.2792C148.737 54.7404 148.594 55.1972 148.445 55.6494C147.045 66.877 145.508 86.7752 148.753 92.2076C150.969 95.9152 142.116 101.113 132.327 102.71C126.706 103.628 120.413 101.541 116.654 101.936L119.032 88.965L117.15 77.4112C103.299 75.9229 96.8829 65.9568 96.8829 43.7761C93.9828 18.6426 104.5 10.9092 121.05 10.9092C137.6 10.9092 151.017 17.5876 151.017 38.9427Z" fill="#F3B2A1" stroke="black" stroke-width="2" stroke-linecap="round"/>
<path id="Vector 654" d="M150.162 45.9648C148.901 46.145 146.163 46.9376 145.298 48.6671" stroke="black" stroke-width="2" stroke-linecap="round" stroke-linejoin="round"/>
<g id="Vector 656" style="mix-blend-mode:multiply" opacity="0.3">
<path d="M109.088 24.3468C107.359 35.588 99.9008 37.4975 95.5773 37.8578L100.982 18.9424C105.846 19.4828 115.682 20.6718 116.114 21.1041C116.654 21.6446 159.89 34.0747 154.485 38.9387C150.162 42.8299 150.702 39.4792 139.893 43.8027C116.114 38.9387 110.529 31.3725 109.088 24.3468Z" fill="#F3B2A1"/>
</g>
<g id="Group 12736">
<path id="Union_3" d="M154.858 36.6979C153.701 29.5861 150.552 19.3906 144.155 11.859C140.936 8.06836 136.858 4.91242 131.769 3.21445C126.669 1.51292 120.693 1.32227 113.766 3.24613C109.423 4.45206 105.668 5.57267 102.575 6.95268C99.4595 8.3425 96.8844 10.0503 94.9896 12.5065C91.2034 17.4145 90.6141 24.6786 92.0645 36.2815L92.2762 37.975H93.9829C95.9366 37.975 97.7905 36.7661 99.2953 35.4651C100.885 34.0906 102.486 32.2548 103.97 30.3377C106.056 27.6435 108.01 24.6584 109.493 22.28C115.374 30.8126 123.107 36.2932 130.341 39.2789C134.317 40.9196 138.177 41.8217 141.537 42.0489C144.817 42.2708 147.834 41.8623 149.993 40.6488L155.087 38.1018L154.858 36.6979Z" fill="#9747FF"/>
<path id="Vector 639" d="M108.007 59.9022C109.619 61.5133 113.807 63.5756 117.674 58.9355" stroke="black" stroke-width="2" stroke-linecap="round"/>
<path id="Vector 642" d="M98.5563 38.0582C100.99 35.3422 103.88 35.2458 106.863 36.464" stroke="black" stroke-width="2" stroke-linecap="round"/>
<path id="Vector 643_2" d="M129.285 38.0582C126.852 35.3422 123.961 35.2458 120.978 36.464" stroke="black" stroke-width="2" stroke-linecap="round"/>
<path id="Vector 640" d="M110.79 40.2348C111.553 42.6972 112.084 48.3346 108.109 51.1845" stroke="black" stroke-width="2" stroke-linecap="round"/>
<rect id="Rectangle 1753" x="101.522" y="40.5605" width="3.8667" height="7.7334" rx="1.93335" fill="black"/>
<rect id="Rectangle 1754" x="122.016" y="40.876" width="3.8667" height="7.7334" rx="1.93335" fill="black"/>
</g>
<g id="Vector 657" style="mix-blend-mode:multiply">
<path d="M117.195 76.2288C134.489 75.3641 145.298 62.1773 148 53.5303C146.379 65.42 146.559 83.4347 148 92.9825C146.199 94.4237 140.65 97.8465 132.868 100.008C125.085 102.17 119.177 99.1075 117.195 97.306L118.816 87.0377L117.195 76.2288Z" fill="#F0A28F" fill-opacity="0.4"/>
</g>
<path id="Vector 658" d="M113.412 76.7703C118.816 77.4909 127.463 77.3107 136.651 69.2041" stroke="black" stroke-width="2" stroke-linecap="round" stroke-linejoin="round"/>
</g>
<g id="Group 12741">
<path id="Vector 646" d="M185.581 121.598C183.961 103.06 160.614 94.6317 149.143 92.7346C143.499 97.1876 136.183 100.661 128.544 101.088C113.952 97.3053 106.893 98.0194 103.798 98.0194C98.13 95.1741 88.3257 88.2826 81.1256 95.1737C64.7991 110.8 52.8224 147.515 63.3116 150.054L62.097 188.673L81.1256 189.487H176.269C180.588 173.226 187.2 140.135 185.581 121.598Z" fill="#F3F4F9"/>
<path id="Vector 664" d="M116.606 98.9533C116.622 98.9446 116.638 98.9359 116.654 98.9272C116.639 98.936 116.623 98.9447 116.606 98.9533C112.265 101.301 103.339 105.632 97.739 106.493C92.1184 107.358 75.2206 130.273 67.4743 141.622L58.2868 137.299L70.7169 108.115L84.7684 95.6846L84.9663 95.7226C94.3574 97.5287 112.64 101.045 116.606 98.9533Z" fill="#E8E9F3"/>
<g id="Vector 663" style="mix-blend-mode:multiply">
<path d="M77.2022 170.805L69.636 169.725L73.4191 187.559H126.923L78.2831 174.589L77.2022 170.805Z" fill="#E8E9F3"/>
</g>
<path id="Vector 665" d="M113.412 101.629C115.754 107.573 135.57 111.357 150.162 96.7646" stroke="black" stroke-width="2" stroke-linecap="round" stroke-linejoin="round"/>
</g>
<g id="Group 12738">
<path id="Vector 647" d="M61.6875 97.2337H45.0186C39.4622 86.226 37.4418 87.7266 32.3906 87.7266C27.3394 87.7266 14.7115 104.239 6.6296 112.745C0.164092 119.55 0.568187 123.253 1.57842 124.253C5.45099 127.923 14.4084 135.262 19.2575 135.262C24.1067 135.262 28.0129 125.588 29.3599 120.751L23.8036 175.291L18.2473 190.803H79.8717L71.7898 138.264C101.592 134.261 94.015 117.248 93.5099 114.246C93.1058 111.844 81.2187 110.243 75.3256 109.743V100.736C79.8717 102.738 91.2874 106.641 100.582 106.24C112.199 105.74 105.633 77.2188 98.5611 82.2225C91.4894 87.2263 74.8205 86.2255 69.2642 87.7266C64.8192 88.9275 62.3609 94.5651 61.6875 97.2337Z" fill="#FBFAF7" stroke="black" stroke-width="2" stroke-linecap="round" stroke-linejoin="round"/>
<g id="Vector 660" style="mix-blend-mode:multiply">
<path d="M56.3863 143.785C62.4393 143.352 68.6363 139.641 70.9782 137.84L78.004 176.752C75.3018 176.211 68.3841 174.482 62.3312 171.888C54.765 168.645 48.8201 144.325 56.3863 143.785Z" fill="#D9D9D9" fill-opacity="0.5"/>
</g>
<g id="Vector 659" style="mix-blend-mode:multiply">
<path d="M29.6433 120.239C21.861 136.669 11.6286 131.949 6.94476 129.427C16.8889 137.209 21.1764 135.912 22.0771 134.291L29.1029 127.265L26.9411 152.125L24.2389 178.607L17.7536 189.416L42.6139 186.714C41.1727 184.011 41.533 179.688 45.8566 174.824C49.8224 170.362 38.2904 167.798 36.6691 159.691C35.372 153.206 42.2536 151.945 45.8566 152.125C44.9558 150.684 41.8573 147.369 36.6691 145.64C31.4808 143.911 29.4632 129.247 29.6433 120.239Z" fill="#D9D9D9" fill-opacity="0.5"/>
</g>
<path id="Vector 648" d="M80.584 117.668C77.2544 113.616 86.9658 112.863 92.2377 112.993C92.9313 113.642 94.2354 115.72 93.9025 118.837C93.4863 122.732 84.746 122.732 80.584 117.668Z" fill="#9747FF" stroke="black" stroke-width="2.16177" stroke-linecap="round" stroke-linejoin="round"/>
<path id="Vector 652" d="M75.5809 145.641C59.6147 149.566 35.0606 147.276 24.7794 145.641V151.638C47.5191 156.437 68.1219 153.638 75.5809 151.638V145.641Z" fill="#9747FF" stroke="black" stroke-width="2.16177" stroke-linecap="round" stroke-linejoin="round"/>
<path id="Vector 653" d="M41.8614 178.867C42.6687 177.017 38.812 175.64 35.5088 174.536C39.2348 175.537 44.0714 175.998 44.7755 173.743C44.7755 169.961 39.3713 172.122 33.9662 167.727C27.158 162.192 28.833 163.497 24.5987 159.598C19.1237 164.855 13.9545 172.007 15.7019 179.393C16.1489 181.282 17.0609 182.927 18.743 184.027C20.6683 185.286 28.5622 186.174 31.2845 183.472C32.2077 182.731 26.9409 182.391 24.5987 180.949C25.8051 181.009 37.74 185.093 37.74 180.949C37.74 180.542 37.2326 180.21 36.4488 179.922C39.375 180.402 41.8614 180.334 41.8614 178.867Z" fill="#F3B2A1" stroke="black" stroke-width="2" stroke-linecap="round" stroke-linejoin="round"/>
<g id="Vector 661" style="mix-blend-mode:multiply">
<path d="M103.143 89.4349C105.305 104.567 85.6691 102.946 75.5809 100.244C112.871 115.917 106.386 96.4607 106.386 92.1371C106.386 88.6783 103.504 84.2107 102.063 82.4092L103.143 89.4349Z" fill="#D9D9D9" fill-opacity="0.5"/>
</g>
<g id="Group 12737">
<rect id="Rectangle 1756" x="68.0147" y="105.647" width="3.24265" height="7.56618" rx="1.62132" fill="black"/>
<rect id="Rectangle 1757" x="55" y="105.647" width="3.24265" height="7.56618" rx="1.62132" fill="black"/>
</g>
</g>
<g id="Group 12740">
<g id="Vector 662" style="mix-blend-mode:multiply">
<path d="M138.272 152.431C139.137 148.107 145.118 135.857 148 130.272C143.244 146.702 143.857 152.971 145.838 165.942L132.868 164.861L82.6067 149.728L83.6875 148.647H85.3089L97.739 152.431C115.213 155.493 137.407 156.754 138.272 152.431Z" fill="#F3F4F9"/>
</g>
<path id="Vector 645" d="M149.194 130.272C143.68 152.416 146.015 158.187 145.839 165.926C145.838 165.934 145.831 165.941 145.823 165.941V165.941C139.02 165.583 132.299 164.288 125.85 162.094L84.4307 148.003C83.7397 147.768 82.9953 148.174 82.8183 148.882L77.3066 170.929C76.9463 172.37 77.7869 173.839 79.2121 174.258L134.635 190.567H175.887C180.201 174.242 187.211 139.795 185.593 121.185C183.975 102.574 160.653 94.1117 149.194 92.207C135.605 102.982 120.438 102.71 117.195 97.8458C114.373 98.6054 111.465 98.7132 108.548 98.4839" stroke="black" stroke-width="2" stroke-linecap="round" stroke-linejoin="bevel"/>
<path id="Vector 651" d="M45.3361 148.807C44.9731 145.902 49.6502 148.201 53.3059 149.968C49.7263 148.071 45.2448 144.974 45.3361 143.943C45.4711 142.418 55.6043 145.41 58.8472 146.105C60.376 146.433 63.1508 146.105 67.4942 145.564C68.1585 145.482 69.678 145.502 69.6651 144.203C69.6405 141.716 68.8103 137.391 71.2574 137.838C75.4809 138.609 78.3031 150.429 82.0862 150.429L77.2222 169.884C73.2589 169.704 64.0354 169.128 58.8472 168.263C56.5781 167.885 49.7977 161.066 49.6596 160.156C49.482 158.986 56.3813 163.703 56.6854 163.399C55.7574 162.626 48.7626 160.156 46.9574 153.13C46.5348 151.486 56.2231 158.38 57.7663 157.994C54.5236 156.913 45.8766 150.428 45.3361 148.807Z" fill="#F3B2A1" stroke="black" stroke-width="2" stroke-linecap="round" stroke-linejoin="round"/>
</g>
</g>
</g>
</svg>
