<svg width="20" height="20" viewBox="0 0 20 20" fill="none" xmlns="http://www.w3.org/2000/svg">
<path fill-rule="evenodd" clip-rule="evenodd" d="M15.916 6.91699H14.5827V8.91699H15.916C16.4993 8.91699 16.916 9.33366 16.916 9.91699V15.917C16.916 16.5003 16.4993 16.917 15.916 16.917H9.91602C9.33268 16.917 8.91602 16.5003 8.91602 15.917V14.7503H6.91602V15.917C6.91602 17.5837 8.24935 18.917 9.91602 18.917H15.916C17.5827 18.917 18.916 17.5837 18.916 15.917V9.91699C18.916 8.25032 17.5827 6.91699 15.916 6.91699Z" fill="#383C40"/>
<path fill-rule="evenodd" clip-rule="evenodd" d="M4.08301 3.08398C3.49967 3.08398 3.08301 3.50065 3.08301 4.08398V10.084C3.08301 10.6673 3.49967 11.084 4.08301 11.084H10.083C10.6663 11.084 11.083 10.6673 11.083 10.084V4.08398C11.083 3.50065 10.6663 3.08398 10.083 3.08398H4.08301ZM10.083 13.084H4.08301C2.41634 13.084 1.08301 11.7507 1.08301 10.084V4.08398C1.08301 2.41732 2.41634 1.08398 4.08301 1.08398H10.083C11.7497 1.08398 13.083 2.41732 13.083 4.08398V10.084C13.083 11.7507 11.7497 13.084 10.083 13.084Z" fill="#383C40"/>
</svg>
