<svg width="20" height="20" viewBox="0 0 20 20" fill="none" xmlns="http://www.w3.org/2000/svg">
<path fill-rule="evenodd" clip-rule="evenodd" d="M10.0005 2.83366C7.00291 2.83366 4.57292 5.26365 4.57292 8.26119C4.57292 9.1106 4.89664 10.1005 5.45433 11.1539C6.00635 12.1966 6.75247 13.2363 7.51498 14.1683C8.27529 15.0975 9.0379 15.9027 9.61145 16.4763C9.75412 16.619 9.88479 16.747 10.0005 16.8587C10.1161 16.747 10.2468 16.619 10.3895 16.4763C10.963 15.9027 11.7256 15.0975 12.4859 14.1683C13.2484 13.2363 13.9946 12.1966 14.5466 11.1539C15.1043 10.1005 15.428 9.1106 15.428 8.26119C15.428 5.26365 12.998 2.83366 10.0005 2.83366ZM10.0005 18.0003C9.44682 18.6232 9.44668 18.623 9.44652 18.6229L9.44477 18.6213L9.44045 18.6175L9.42515 18.6038C9.41203 18.592 9.39316 18.5749 9.3689 18.5528C9.32039 18.5086 9.25033 18.4442 9.1618 18.3613C8.9848 18.1955 8.73362 17.9555 8.43294 17.6548C7.83257 17.0544 7.02997 16.2075 6.22505 15.2237C5.42235 14.2426 4.60325 13.1084 3.98135 11.9337C3.36513 10.7697 2.90625 9.49874 2.90625 8.26119C2.90625 4.34317 6.08243 1.16699 10.0005 1.16699C13.9185 1.16699 17.0947 4.34317 17.0947 8.26119C17.0947 9.49874 16.6358 10.7697 16.0196 11.9337C15.3977 13.1084 14.5786 14.2426 13.7759 15.2237C12.9709 16.2075 12.1683 17.0544 11.568 17.6548C11.2673 17.9555 11.0161 18.1955 10.8391 18.3613C10.7506 18.4442 10.6805 18.5086 10.632 18.5528C10.6078 18.5749 10.5889 18.592 10.5758 18.6038L10.5605 18.6175L10.5561 18.6213L10.5548 18.6225C10.5547 18.6226 10.5541 18.6232 10.0005 18.0003ZM10.0005 18.0003L10.5541 18.6232L10.0005 19.1153L9.44652 18.6229L10.0005 18.0003ZM10.0007 6.83379C9.35638 6.83379 8.83404 7.35612 8.83404 8.00045C8.83404 8.64478 9.35638 9.16712 10.0007 9.16712C10.645 9.16712 11.1674 8.64478 11.1674 8.00045C11.1674 7.35612 10.645 6.83379 10.0007 6.83379ZM7.16738 8.00045C7.16738 6.43565 8.4359 5.16712 10.0007 5.16712C11.5655 5.16712 12.834 6.43565 12.834 8.00045C12.834 9.56526 11.5655 10.8338 10.0007 10.8338C8.4359 10.8338 7.16738 9.56526 7.16738 8.00045Z" fill="black"/>
</svg>
