<svg width="24" height="24" viewBox="0 0 24 24" fill="none" xmlns="http://www.w3.org/2000/svg">
<g id="icon-bell">
<path id="Icon" d="M3.11877 16.8669L2.30292 16.2886L2.30292 16.2886L3.11877 16.8669ZM4.42712 12.891L3.42712 12.8796V12.891H4.42712ZM4.45458 10.4872L5.45458 10.4986V10.4872H4.45458ZM20.8882 16.8862L21.7153 16.324L21.7153 16.324L20.8882 16.8862ZM19.6291 12.891L18.6291 12.879V12.891H19.6291ZM19.6566 10.6063L20.6566 10.6183V10.6063H19.6566ZM9 20.6002C8.44772 20.6002 8 21.048 8 21.6002C8 22.1525 8.44772 22.6002 9 22.6002V20.6002ZM15 22.6002C15.5523 22.6002 16 22.1525 16 21.6002C16 21.048 15.5523 20.6002 15 20.6002V22.6002ZM3.93462 17.4451C4.68473 16.3868 5.42712 14.811 5.42712 12.891H3.42712C3.42712 14.2889 2.88433 15.4683 2.30292 16.2886L3.93462 17.4451ZM5.42706 12.9024L5.45452 10.4986L3.45465 10.4757L3.42719 12.8796L5.42706 12.9024ZM21.7153 16.324C21.158 15.5041 20.6291 14.3116 20.6291 12.891H18.6291C18.6291 14.8111 19.3411 16.3889 20.0612 17.4483L21.7153 16.324ZM20.629 12.903L20.6565 10.6183L18.6566 10.5943L18.6292 12.879L20.629 12.903ZM20.6566 10.6063C20.6566 5.5884 16.845 1.40039 12 1.40039V3.40039C15.6122 3.40039 18.6566 6.56019 18.6566 10.6063H20.6566ZM20.43 19.0002C21.2272 19.0002 21.6917 18.4074 21.8676 17.9645C22.0475 17.5116 22.0848 16.8677 21.7153 16.324L20.0612 17.4483C20.0114 17.375 20.0017 17.3121 20.0003 17.2846C19.9989 17.258 20.0031 17.2408 20.0088 17.2263C20.0139 17.2136 20.0337 17.1689 20.0942 17.118C20.1622 17.0608 20.2799 17.0002 20.43 17.0002V19.0002ZM5.45458 10.4872C5.45458 6.50686 8.4492 3.40039 12 3.40039V1.40039C7.21637 1.40039 3.45458 5.53507 3.45458 10.4872H5.45458ZM3.57109 17.0002C3.72452 17.0002 3.84358 17.0632 3.91081 17.1209C3.9704 17.172 3.98865 17.2156 3.99263 17.2259C3.99738 17.2382 4.00128 17.2536 3.99962 17.2793C3.9979 17.3059 3.9876 17.3704 3.93462 17.4451L2.30292 16.2886C1.9164 16.8339 1.95063 17.4888 2.12631 17.9448C2.2976 18.3895 2.76091 19.0002 3.57109 19.0002V17.0002ZM20.43 17.0002H3.57109V19.0002H20.43V17.0002ZM9 22.6002H15V20.6002H9V22.6002Z" fill="#2B2B2B"/>
</g>
</svg>
