<svg width="23" height="22" viewBox="0 0 23 22" fill="none" xmlns="http://www.w3.org/2000/svg">
<path d="M14.7083 10.9082C16.0833 9.89984 16.9999 8.29567 16.9999 6.50817C17.0458 3.529 14.6624 1.054 11.7291 0.916503C8.56658 0.779003 5.99992 3.29984 5.99992 6.4165C5.99992 8.24984 6.91659 9.89984 8.29159 10.9082C4.80825 12.1915 2.33325 15.5373 2.33325 19.479C2.33325 19.6165 2.33325 19.7998 2.33325 19.9373C2.33325 20.0748 2.42492 20.1665 2.56242 20.1665H4.39575C4.53325 20.1665 4.62492 20.0748 4.62492 19.9373C4.62492 19.7998 4.62492 19.6623 4.62492 19.479C4.62492 15.6748 7.69575 12.604 11.4999 12.604C15.3041 12.604 18.3749 15.6748 18.3749 19.479C18.3749 19.6165 18.3749 19.754 18.3749 19.9373C18.3749 20.0748 18.4666 20.1665 18.6041 20.1665H20.4374C20.5749 20.1665 20.6666 20.0748 20.6666 19.9373C20.6666 19.7998 20.6666 19.6165 20.6666 19.479C20.6666 15.5373 18.1916 12.1915 14.7083 10.9082ZM11.4999 9.62484C9.71242 9.62484 8.29159 8.204 8.29159 6.4165C8.29159 4.629 9.71242 3.20817 11.4999 3.20817C13.2874 3.20817 14.7083 4.629 14.7083 6.4165C14.7083 8.204 13.2874 9.62484 11.4999 9.62484Z" fill="#9213E0"/>
</svg>
