<svg width="25" height="24" viewBox="0 0 25 24" fill="none" xmlns="http://www.w3.org/2000/svg">
<path d="M2.8999 9.24418C2.8999 8.85016 3.10045 8.4805 3.43811 8.25215L11.7581 2.62564C12.2022 2.32531 12.7976 2.32531 13.2417 2.62564L21.5617 8.25216C21.8994 8.4805 22.0999 8.85016 22.0999 9.24418V19.7745C22.0999 20.7829 21.2403 21.6004 20.1799 21.6004H4.8199C3.75952 21.6004 2.8999 20.7829 2.8999 19.7745V9.24418Z" stroke="#454545" stroke-width="2"/>
<path d="M14.8999 13.2004C14.8999 14.5259 13.8254 15.6004 12.4999 15.6004C11.1744 15.6004 10.0999 14.5259 10.0999 13.2004C10.0999 11.8749 11.1744 10.8004 12.4999 10.8004C13.8254 10.8004 14.8999 11.8749 14.8999 13.2004Z" stroke="#454545" stroke-width="2"/>
</svg>
