<svg width="151" height="119" viewBox="0 0 151 119" fill="none" xmlns="http://www.w3.org/2000/svg">
<g id="Group 12775">
<path id="Vector 670 (Stroke)" fill-rule="evenodd" clip-rule="evenodd" d="M7.11209 76.7313C12.1286 65.3765 24.0529 59.5382 37.6764 63.3292L36.3359 68.1462C24.9667 64.9825 15.6418 69.797 11.6856 78.7519L7.11209 76.7313Z" fill="#E976C9"/>
<g id="Group 12755">
<path id="Vector 669" d="M32.9785 10.5837C30.3685 32.48 44.6307 38.6966 54.3074 40.6263L55.038 31.9104C44.3218 29.3773 40.6496 21.1539 42.8854 10.584L32.9785 10.5837Z" fill="#34A854"/>
<path id="Rectangle 1760" d="M51.7168 26.1953L116.295 55.7812L107.495 84.6227L38.7758 74.4916L51.7168 26.1953Z" fill="#9213E0"/>
<path id="Rectangle 1761" d="M94.0634 77.5599L105.216 81.3275L92.4625 118.197L82.4998 111.5L94.0634 77.5599Z" fill="#9213E0"/>
</g>
<rect id="Rectangle 1762" opacity="0.6" x="78.8892" y="47" width="33" height="8" transform="rotate(29.0861 78.8892 47)" fill="white"/>
<circle id="Ellipse 98" cx="27.5" cy="46.5" r="3.5" fill="#ECECEC"/>
<circle id="Ellipse 101" cx="23.5" cy="103.5" r="5.5" fill="#ECECEC"/>
<circle id="Ellipse 98_2" cx="4.5" cy="85.5" r="2.5" fill="#EBA4A4"/>
<circle id="Ellipse 100" cx="144" cy="74" r="7" fill="#EAEBA4"/>
<circle id="Ellipse 99" cx="58" cy="6" r="6" fill="#7C81ED"/>
<path id="Rectangle 1763" d="M0.239608 45.8251L1.55603 51.3196C6.62916 48.7864 9.57345 48.0668 15.0128 48.0954L13.6964 42.601C8.67994 42.6212 5.75411 43.2064 0.239608 45.8251Z" fill="#2B2B2B"/>
</g>
</svg>
